<?xml version="1.0" encoding="UTF-8"?>
<svg xmlns="http://www.w3.org/2000/svg" viewBox="0 0 569.43 480.75">
  <!-- Eyes static, Eyebrow + Moustache animated by SwansonAnimator JS via contentDocument -->
  <g id="Moustache">
    <g id="vqqJ7s">
      <g>
        <path d="M321.19,427.98c-7.92-.33-14.13-4.51-18.98-10.28-4.32,6.26-9.55,10.92-16.66,12.36,4.29-4.14,8.23-7.78,10.02-13.6-5.2,6.58-12.26,12.38-21.06,14.4-6.46,1.48-12.72,2.95-19.16,3.2-2.05.08-4.19-.13-6.12.52-6.94,2.33-13.46,4.04-20.89,4.13l5.67-3.06-6.85.98c-2.64.38-5.22,1.87-7.47,3.26l-5.86.68c-6.62.76-13.07,1.2-19.71,1.54-8.97.45-16.21-4.7-22.85-10.87,1.06,2.73,3.83,4.41,6.01,6.24,12.31,10.31,26.87,5.32,41.68,3.06-5.32,4.4-12.22,5.33-19.21,6.45-13.05,2.09-21.34,3.52-34.37-.4,7.75,5.42,16.99,5.44,26.19,5.27-9.76,4.2-20.11,4.49-30.09,2.84l-10.57-1.75c10.17,5.27,17.88,7.51,29.69,7-3.83,2.05-8.19,2.55-12.52,3.65-10.99,2.79-21.52,2.02-31.97-3.3,6.7,6.5,15.13,9.39,23.91,12.21-11.97,3.97-27.85,3.58-39.58-3.28,4.13,6.52,10.35,9.04,17.55,11.38-6.33.7-11.89-1.41-17.85-2.58-11.26-2.21-20.52-8.72-25.74-19.07-2.49-4.95-3.98-10.25-5.46-15.81-1.85-6.94.27-13.55,1.28-21.34-3.21,5.42-4.5,11.81-4.47,18.49.03,6.2,2.71,11.62,4.56,17.77-8.98-12.35-12.43-27.87-5.36-42.28,4.21-8.59,10.32-15.68,15.84-23.32-5.32,3.29-8.84,7.84-12.61,12.36-4.64,5.56-6.76,11.99-9.61,19.25-2.31-26.39,23.31-51.62,47.07-57.94,4.57-1.21,8.92-2,13.09-4.57-8.66-.36-16.23,2.89-24.94,5.46,11.95-9.17,25.77-8.26,40.42-15.49-7.64-.46-14.65,2.07-22.87,3.86,6.43-4.88,13.85-8.35,21.76-9.74,2.91-.51,5.54-.9,8.03-1.59l-6.71-.04c4.9-5.16,27.64-14.5,35.18-14.31-3.1,1.52-6.37,3.02-9.82,4.36l-4.92,1.91c6.23,1.15,10.72-1.84,15.42-5.18,6.33-4.49,14.04-6.4,21.53-8.28l17.75-4.46c7.15-1.8,14.1-2.11,21.71-2.57-2.97-.98-6.03-.95-9.26-1-8.74-.14-16.7,1.21-25.52,3.7,9.76-6.39,21.4-9,33.07-8.42,14.18.71,17.47,4.02,30.63,5.89-10.36-7.58-21.85-9.24-34.68-9.23,15.21-5.78,31.33-2.71,44.45,7.04-1.56-3.63-4.94-4.92-7.91-7.64,4.88-.04,9.28,2.5,13.41,5.51,3.72-3.73,8.37-6.46,13.94-8.05-2.97,3.41-7.22,4.99-8.63,9.84,11.56-11.4,28.09-16.86,44.47-12.76-13.54,1.47-25.41,4.52-34.96,13.43,5.19-1.49,9.9-3.19,14.94-5.29,16.55-6.91,31.05-7.44,47.62-.48-11.54-1.11-22.48-2.17-33.04,2.04,8.81-1.14,16.63.06,25.06.75l17.33,1.43,18.66,3.66c3.91.77,8.07.47,12.12,1.43,9.56,2.28,18.83,4.25,27.46,9.24-9.99.89-15.4-1.53-24.6-1.68l5.58,2.37c2.91,1.23,5.78.29,8.82.3h8.72c8.77,0,17.13,2.83,24.65,6.97-8.63-1.23-16.37-2.38-24.4-.81,16.3,5.84,27.66,1.44,42.42,9.8-7.09-.26-14.96-3.66-22.53-1.03l20.33,4.14c18.48,3.76,44.61,26.93,45.14,49.39-5.94-12.94-14.39-21.09-26.27-28.72,2.49,3.34,5.08,5.67,7.81,8.42,15.61,15.71,21.62,32.56,11.81,54.02,2.54-13.69,2.24-17.99-3.88-31.56-.59-.44-.96-.67-1.19-.62,6.43,15.51,3.36,36.83-8.28,48.48-3.48,3.48-9.32,7.24-13.5,8.42-.49.14-2.13-.46-2.58-.17-4.84,3.17-11.21,5.44-17.17,5.66,6.17-3.22,13.19-6.38,16.35-13.2-.25-.48-1.19.44-1.72,1.09-10.87,6.11-23.6,8.88-36.56,6.72,8.5-3.75,13.71-7.2,20.13-14.38-8.83,5.53-18.66,7.5-28.84,6.41-4.59-.49-9.24.01-14-2.35,10.68-.35,21.68-2.8,29.74-10.63-7.58,2.35-14.26,5.54-21.73,5.82-6.95.26-13.48.32-19.86-1.67,8.21-.65,15.95-1.51,21.88-6.93-9.41,3.04-18.49,3.52-28.02,3.24-8.22-.24-16.5-.2-23.69-4.59,10.66,1.3,20.85,3.14,28.5-6.05-9.92,5.77-20.78,7.59-31.75,4.59-3.04-.83-6.65-.79-9.67-.42l5.89,1.6c-8.49,2.13-16.01-.99-24.05-1.3-3.59-.14-7.58.74-11.36.4l-13.14-1.2c-4.96-.45-9.84-3.41-13.95-6.03-2.02-1.28-3.28-2.36-5.93-2.91,3.52,3.74,7.59,7.3,11.64,9.78ZM394.99,344.92c-.19-5.21-12.28-18.03-17.11-21.14-7.64-4.92-16.53-7.75-25.66-9.05,7.48,3.03,14.84,5.51,21.42,10.27,1.08,1.88,2.51,3.19,4.28,4.39,6.53,4.39,11.67,9.42,17.07,15.53ZM207.15,330.59l13.83-6.8c-7.84-1.65-29.66,11.56-34.25,17.19l20.42-10.39ZM214.11,342.97c2.86-3.66,15.11-13.05,14.79-13.31l-1.08-.91,9.8-6.09c-5.43.85-9.77,3.68-14.34,6.41-8.88,5.29-12.75,10.67-17.89,19.24.14,2.14-.2,4.29-.94,7.02l9.65-12.35ZM373.51,314.64l31.34,11.77c-5.45-4.66-24.63-13.81-31.34-11.77ZM223.31,361.31c.06,6.62-1.74,10.8-.78,16.11,1.27-9.68,3.53-18.58,8.52-26.81l.52,1.46c.06.18.32.25.46.09l.74-.91c6.31-14.04,14.57-22.9,29.38-28.96-12.01,1.85-21.33,9.49-28.85,18.64-4.51,5.48-6.77,11.99-10.65,17.85-2.26,3.41-5.35,6.23-7.24,10.1-2.13,4.36-4.84,8.68-3.91,13.56l8.12-15.71c1.04-2.02,2.18-4.6,3.7-5.44ZM380.39,374.11c.92-5.26-2.68-21.06-8.13-23.38-5.68-9.79-12.66-19.19-22.19-25.47-5.86-3.86-12.03-7.32-19.12-7.03,18.81,5.71,18.71,11.27,30.79,23.81,4.95,5.14,8.82,10.76,11.96,16.99l-.83-6.7c4.38,6.62,5.37,13.85,7.53,21.78ZM326.94,392.78c-4.52-8.16-11.03-18.93-10.88-26.89l3.98,8.39-2.31-23.14c-1.06-10.64-3.72-22.12-13.27-28.45,7.78,11.55,11.18,17.68,9.66,31.29l-4.24-16.54.3,16.13c.32,17.09,5.17,27.36,16.75,39.21ZM414.86,320.61c-3.78-1.75-7.74-2.99-12.49-3.24,3.44,3.65,7.52,4.56,12.49,3.24ZM254,378.1c1.54-5.57,2.37-11.05,2.81-16.96l1.44-11.47c1.12-8.88,5.16-16.41,11.02-22.9-5.58,3.24-9.18,8.6-12.45,14.13-4.34,7-4.46,14.94-3.88,22.88l1.05,14.33ZM272.55,398.14c9.95-10.99,15.89-24.43,13.69-38.98l-1.98-13.03c-3.32,2.1-.72,5.01-2.67,7.65-1.3-9.77.09-18.99,4.45-28.16-7.71,5.64-8.77,25.2-7.8,33.35.88,7.31.53,13.89.01,21.54l3.83-12.73c.98,6.78-1.03,12.92-3.95,18.91l-5.58,11.44ZM292.65,370.77c4.04-18.08-3.06-26.16,1.16-45.6-6.29,9.52-3.96,22.57-2.25,32.82.72,4.3.65,8.69,1.08,12.78ZM303.52,367.3l1.42-18.69c.18-8.43-.8-16.77-6.24-23.29,5.02,17.42,1.7,26.57,4.82,41.98ZM345.67,364.14l-1.62-8.62c-2.45-13.02-8.55-25.25-20.72-31.56,6.75,6.57,11.73,13.79,13.99,22.93,1.21,4.35,3.05,8.35,5.35,12.14l3,5.11ZM387.22,360.63c3.98,5.21,6.48,10.28,9.06,15.93-.04-5.28-2.47-9.26-4.25-13.78l3.51,2.07-6.07-13.45c-1.44-3.2-3.36-6.17-5.06-9.22-2.33-4.16-4.85-7.42-8.77-10.26-4.46-3.23-8.57-6.75-14-8.24l12.69,9.79c5.32,4.1,8.58,9.8,11.36,15.99-3.79-1.74-7.89-8.73-14.06-10.65l3.21,4.14c2.53,3.26,5.25,6.46,7.56,9.86,1.62,2.39,2.87,5.25,4.83,7.82ZM365.81,363.96c-.2-5.21-2.41-9.46-4.97-13.79-4.96-8.37-11.52-19.37-21.07-23.19,7.16,6.86,11.87,12.78,16.58,21.32,1.94,3.51,3.91,6.73,6.36,9.93l3.1,5.74ZM240.1,371.67l2.32-5.89-5.93,6.82c1.41-17.36,5.61-26.63,15.76-39.41-8.49,5.29-13.96,13.83-15.98,23.64-.68,3.3-1.67,6.73-2.01,10.01l-1.33,12.94c-.4,3.89-1.01,7.6-.06,11.29.94-3.19,1.71-5.87,3.01-8.63,1.63-3.47,2.77-7.11,4.21-10.75ZM177.59,339.27c-5.1,1.11-9.38,2.27-13.96,3.86,5.03,1.15,10.96-.36,13.96-3.86ZM343.3,384.23c-2.02-3.39-2.92-5.59-3.51-8.63l-1.35-7.02c-.83-4.33-1.17-8.7-2.23-12.84-2.45-9.59-7.19-18.34-14.3-25.02,5.45,9.68,9.14,19.46,11.05,30.33l.88,4.99c-2.08-2.52-3.04-4.08-4.07-6.2l.95,3.29c2.73,7.43,6.34,16.88,12.57,21.09ZM252.89,393.42c8.89-9.04,10.78-24.26,12.08-36.71.59-5.7,3.31-15.94,5.44-22.13-7.93,7.55-9.92,23.56-10.67,33.96-.66,9.25-3.48,16.34-6.85,24.88ZM436.83,393.11c-.79-5.3-.86-10.22-2.03-14.5-4.28-15.7-13.61-28.5-26.21-38.14-5.68-4.34-10.64-9.33-17.81-11.16,11.54,7.94,21.49,16.55,29.42,27.57-.68.32-1.34.46-1.26.67.97,2.62,10.52,14.48,11.67,17.76l6.22,17.8ZM173.64,383.24l6.51-14.13c5.1-11.06,13.71-19.13,22.54-27.44-5.68,2.27-9.71,6.29-13.74,10.79-14.77,13.63-24,32.78-24.03,53.25,1.92-7.83,3.92-15.42,8.72-22.49ZM200.25,391.5c3.57-7.96,6.97-15.39,11.13-23l11.41-20.93c-5.49,4.28-8.39,9.6-12.86,14.34,2.8-8.29,6.26-11.61,9.45-18.51-5.88,5.13-12.85,18.33-15.67,26l4.25-5.32-2.37,7.4c-2.12,6.63-4.66,12.89-5.34,20.02ZM420.92,342.29c-5.14-4.03-10.33-7.55-16.62-9.33,9.4,5.85,17.19,12.27,24.03,20.94,4.75,6.03,7.34,12.87,10.41,20,.97-10.97-10.06-25.53-17.81-31.61ZM157.85,396.09c3.52-5.96,5.64-11.61,7.71-17.77,3.93-11.7,10.8-20.79,20.29-28.89-4.32,1.87-7.59,4.61-11.13,7.45-7.26,7.8-9.74,18.52-13.85,28.11l-1.72,4.03-1.3,7.06ZM412.86,359.18c-3.46-7.32-8.71-13.39-15.29-18.45,2,5.44,5.48,9.24,9.31,13.04,1.87,1.86,3.17,4.1,5.98,5.41ZM461.1,354.22c3.15,3.58,6.17,6.79,8.74,10.99-9.52-6.28-9.15-10.05-19.56-17.07-5.41-3.64-10.26-8.03-16.83-9.62,10.73,6.91,20.48,14.22,29.29,23.33l5.04,5.21c10.93,11.31,14.09,22.96,12.78,39.03,3.4-8.14,2.11-17.15.06-25.62-2.14-8.87-10.45-22.23-19.51-26.25ZM183.62,375.63c6.33-6.26,10.9-13.41,13.79-21.76-6.07,6.34-10.85,13.43-13.79,21.76ZM122.6,428.31c-1.24-10.04-2.48-20.73,1.09-28.18.5-1.04,1.77-2.33,2.02-3.06,1.73-5.04,4.27-9.07,7.58-13.07,3.24-3.92,6.36-7.72,9.99-11.35l14.76-14.81c-3.29,1.04-5.43,3.53-7.91,5.76-7.1,6.38-13.01,12.99-19.13,20.63l2.42-6.05c-11.43,7.32-15.95,24.05-14.77,36.35,1.1,4.88,2.16,9.74,3.96,13.79ZM249.09,377l-1.9,2.8c-3.03-6.94,1.03-6.63-.36-17.7l-1.23-9.82c-1.37,4.8-2.92,9.63-1.79,15.02.7,3.34.29,7.06.65,10.57,1.21,11.82-1.57,11.62-4.61,22.31,4.27-5.24,9.79-16.56,9.23-23.18ZM356.37,379.42l-3.2-17.77c-1.01-5.59-2.76-10.69-6.05-15.14,3.51,12.49,2.36,22.07,9.24,32.91ZM254.23,408.73c10.87-5.97,15.84-17.65,18.59-29.2.92-7.38,1.19-14.48.04-21.78-.94,9.88-2.31,18.53-4.77,27.65-2.48,9.23-6.53,16.6-13.86,23.33ZM108.44,445.27c-9.39-14.84-9.36-31.74.69-45.36,2.19-4.36,4.51-8.46,7.28-12.44,5.8-7.05,11.89-12.89,18.92-18.83-4.62,1.87-8.13,4.86-11.75,8.09-11.61,8.08-19.63,19.66-22.68,33.56-2.39,12.32-.53,25.65,7.54,34.98ZM355.96,354.68c2.67,10.77,7.25,17.82,10.57,27.67-.53-12.9-.75-18.53-10.57-27.67ZM502.7,399.73c.27-8.94-2.64-17.05-6.89-24.48-5.69-9.96-11.7-14.6-21.33-20.23-4.19-2.45-7.68-5.77-12.73-6.7l14.73,10.17c7.19,4.96,11.51,11.19,16.22,18.33,6.64,10.08,10.25,20.63,8.28,33.86,2.11-3.23,1.59-6.84,1.72-10.94ZM348.51,402.95c-16.04-11.81-19.83-26.77-25.07-45.26-.65,16.27,8.8,39.09,25.07,45.26ZM488.92,357.92c-2.88-3.76-7-5.9-11.05-6.59l11.05,6.59ZM191.23,391.37l2.63,14.02c1.61-10.48-2.53-5.89-.26-20.51.76-4.91,1.61-9.19,3.07-15.08-7.8,10.8-14.96,32.41-3.71,46.3-3.4-6.99-4.68-17.32-1.73-24.73ZM103.52,385.41c3.92-3.01,7.63-6.52,11.14-10.07-4.62,2.5-8.2,5.8-11.14,10.07ZM409.69,400.98c8.11-13.21-1.91-33.95-9.84-43.46,2.75,7.99,5.28,15.01,8.24,22.15,1.37,3.31,3.14,5.82,3.22,9.61.09,4.04-.74,7.69-1.63,11.7ZM150.81,410.63c3.47-18.81-1.84-6.85,5.02-25.61l4.39-12c-6.11,5.02-10.94,17.39-11.09,24.67l1.49,1.98c-.48,3.71-.57,7.09.2,10.97ZM442.89,365.13c9.81,5.69,16.66,26.21,17.26,37.7,3.01-10.37-.25-20.7-6.02-28.97-2.73-3.91-11.46-14.19-15.29-17.56l3.18,6.97c.32,5.85,2.06,10.91,4.97,16.03,6.63,11.68,6.11,25.53.19,37.49,6.67-5.75,6.9-21.18,5.21-28.68-1.82-8.11-5.41-15.31-9.5-22.96ZM229.01,414.25c-.71-3.57-1.51-6.14-2.41-9.07-1.45-8.51-.37-16.95,2.37-25.08,1.07-3.18,2.27-6.03,2.01-9.6-1.31,3.09-2.09,6.04-3.16,9.38-1.32,4.14-3.58,8.19-3.82,12.71-.42,7.79,1.43,15.25,5.01,21.67ZM424.54,381.5c1.16,1.46,1.97,2.35,2.95,3.11-.81-6.87-11.38-22.91-18.6-24.89l8.95,11.73c4.18,5.48,6.69,12.07,6.72,18.95.01,3.62,1.12,7.93.66,11.09l-1.17,8.06c5.74-8.85,1.7-20.24.5-28.04ZM175.46,404.37c1.2-7.51,3.31-13.65,6.32-19.91l4.1-8.54c-7.67,2.7-13.56,21.56-10.42,28.45ZM297.16,369.72c-1.1,8.82-2.26,16.6-5.63,24.73,3.86-1.09,7.36-22.15,5.63-24.73ZM139.53,411.37l1.38-9.73c1.08-7.59,2.65-14.26,5.74-21.68-13.72,15.49-13.83,42.2-3.91,57.83-2.8-9.22-4.54-17.12-3.22-26.41ZM383.43,365.73c8.23,11.2,11.35,23.45,7.91,36.44,5.77-11.8,1.51-27.93-7.91-36.44ZM462.64,417.27c7.84-17.02,3.33-43.74-10.72-55.61,10.36,19.98,14.79,33.43,10.72,55.61ZM215.15,396.01l3.68-18.15c-6.05,9.44-7.34,21.41-2.94,32.08-.25-4.67-1.67-9.3-.73-13.93ZM374.27,403.85c4.43-12.3,2.97-26.9-5.08-35.58,2.12,7.04,4.46,12.9,5.62,19.52.96,5.43-.6,10.66-.54,16.07ZM310.49,396c-3.75-7.38-6.63-14.32-9.27-21.81,1.04,8.05,3.73,16.02,9.27,21.81ZM145.17,405.54l4.14-16.26c.37-1.43,1.55-2.71.8-4.28-8.09,11.06-10.8,25.14-5.32,38.3-.23-6-1.16-11.76.37-17.77ZM363.38,394.83l-13.1-21.17c-.78,4.52,10.98,19.7,13.1,21.17ZM385.51,399.78c1.34-4.18,1.22-8.34.95-12.74-.52-4.4-1.45-8.54-4.1-11.91,1.65,5.49,2.75,10.42,3.05,16l.1,8.66ZM132.54,392.75c-5.28,8.01-7.31,17.78-4.56,26.49.72-10.57,2.31-16.94,4.56-26.49ZM405.08,389.04c1.6-5.03-1.22-9.44-3.9-12.83l3.9,12.83ZM466.13,372.1c4.46,9.04,7.05,18.41,9.28,28.24,1.08-7.42-2.94-23.59-9.28-28.24ZM213.33,416.59c-3.85-6.14-6.26-11.57-5.93-18.29l-.07-8.8c-1.77,4.78-1.66,9.85-.33,14.94,1.17,4.64,2.33,9.44,6.34,12.15ZM486.36,381.46c2.2,8.99,3.59,16.42,4.21,24.82,1.88-3.62.06-23.75-4.21-24.82ZM158.77,418.4c-.89-4.99.3-9.91.6-15.18-3.71,7.04-3.49,15.49.66,22.28l-1.26-7.11ZM442.78,386.05c1.2,6.79,1.66,12.72,1.32,20.07,2.35-2.54,2.14-16.42-1.32-20.07ZM113.5,433.27c-1.22-9.12-1.72-17.15-.41-26.05-3.92,2.66-2.26,23.92.41,26.05ZM289.04,397.18l-6.73,12.51c1.12,1.4,8.35-12.87,6.73-12.51ZM177.72,418.88l-.71-12.07c-1.52,4.15-1.22,8.29.71,12.07ZM132.6,430.24l-1.14-5.73-1.26-14.08-.33,4.73c-.36,5.16-.69,10.37,2.73,15.08ZM322.35,407.87l-6.81-7.82c.96,3.41,3.01,6.85,6.81,7.82ZM151.7,415.55l-1.26-2.7c-2.07,8.46,1.08,17.56,7.68,22.66-4.4-6.35-7.64-12.09-6.42-19.95ZM494.25,404.5c1.18-4.37,1.14-8.94-1.65-12.85l1.65,12.85ZM393.43,415.81c5.92-4.18,8.68-11.27,8.93-17.74-1.71,7.04-4.75,12.46-8.93,17.74ZM249.69,429.06c4.51-2.23,7.38-5.6,9.95-9.44-3.65,3.17-6.92,6.2-9.95,9.44ZM355.73,423.04c-3.06-2.48-5.78-4.37-9.03-6.16,2.34,3.19,5.36,5.29,9.03,6.16ZM347.31,424.97l-10.19-6.07c2.39,3.71,6.1,5.64,10.19,6.07ZM229.88,433.53c4.15-.53,6.95-2.6,9.09-5.32-3.52,1.58-6.45,3.36-9.09,5.32ZM376.03,424.39l-9.78-3.45c1.98,3.65,6.12,3.95,9.78,3.45ZM409.35,430.31c5.66.3,9.93-2.35,14.26-4.71,3.47-2.07,6.74-4.66,8.33-8.65l-6.82,6.94-15.78,6.42ZM397.87,422.09c3.37-3.68-8.08,2.4-10.48,2.28,3.41.44,7.03-.81,10.48-2.28ZM217.67,434.36l-13.5-1.04c4.37,1.54,8.71,3.54,13.5,1.04ZM502.87,431.72c-4.53,7.41-8.95,13.38-14.68,19.18,4.52,3.15,15.21-16.26,14.68-19.18ZM121.08,474.01l-16.73-16.32c3.13,7.41,8.99,15.03,16.73,16.32ZM142.18,471.93c-3.91-1.87-8.02-3.65-12.21-5.13,3.32,3.34,7.43,4.55,12.21,5.13Z"/>
        <path d="M272.55,398.14l5.58-11.44c2.93-5.99,4.94-12.13,3.95-18.91l-3.83,12.73c.51-7.66.86-14.24-.01-21.54-.98-8.15.09-27.71,7.8-33.35-4.36,9.17-5.75,18.39-4.45,28.16,1.95-2.64-.66-5.55,2.67-7.65l1.98,13.03c2.21,14.55-3.74,27.99-13.69,38.98Z" fill="#fff"/>
        <path d="M326.94,392.78c-11.58-11.85-16.43-22.13-16.75-39.21l-.3-16.13,4.24,16.54c1.52-13.61-1.88-19.74-9.66-31.29,9.55,6.32,12.21,17.81,13.27,28.45l2.31,23.14-3.98-8.39c-.15,7.96,6.36,18.73,10.88,26.89Z" fill="#fff"/>
        <path d="M223.31,361.31c-1.52.84-2.65,3.42-3.7,5.44l-8.12,15.71c-.92-4.88,1.78-9.21,3.91-13.56,1.89-3.86,4.99-6.69,7.24-10.1,3.88-5.86,6.15-12.37,10.65-17.85,7.52-9.15,16.84-16.79,28.85-18.64-14.81,6.06-23.07,14.92-29.38,28.96l-.74.91c-.13.17-.39.09-.46-.09l-.52-1.46c-4.99,8.23-7.25,17.13-8.52,26.81-.96-5.31.84-9.49.78-16.11Z" fill="#fff"/>
        <path d="M461.1,354.22c9.06,4.02,17.37,17.38,19.51,26.25,2.05,8.47,3.34,17.49-.06,25.62,1.31-16.07-1.85-27.72-12.78-39.03l-5.04-5.21c-8.81-9.11-18.56-16.42-29.29-23.33,6.57,1.59,11.42,5.98,16.83,9.62,10.41,7.01,10.04,10.79,19.56,17.07-2.57-4.21-5.58-7.41-8.74-10.99Z" fill="#fff"/>
        <path d="M387.22,360.63c-1.96-2.57-3.21-5.43-4.83-7.82-2.3-3.4-5.03-6.6-7.56-9.86l-3.21-4.14c6.17,1.92,10.27,8.9,14.06,10.65-2.77-6.2-6.04-11.89-11.36-15.99l-12.69-9.79c5.44,1.49,9.54,5.01,14,8.24,3.92,2.84,6.44,6.1,8.77,10.26,1.71,3.05,3.62,6.02,5.06,9.22l6.07,13.45-3.51-2.07c1.78,4.52,4.21,8.5,4.25,13.78-2.58-5.65-5.09-10.72-9.06-15.93Z" fill="#fff"/>
        <path d="M436.83,393.11l-6.22-17.8c-1.15-3.28-10.69-15.14-11.67-17.76-.08-.22.58-.36,1.26-.67-7.92-11.01-17.88-19.62-29.42-27.57,7.17,1.82,12.13,6.81,17.81,11.16,12.6,9.64,21.92,22.44,26.21,38.14,1.17,4.28,1.24,9.2,2.03,14.5Z" fill="#fff"/>
        <path d="M122.6,428.31c-1.8-4.05-2.85-8.91-3.96-13.79-1.18-12.3,3.35-29.03,14.77-36.35l-2.42,6.05c6.12-7.64,12.04-14.25,19.13-20.63,2.48-2.23,4.63-4.72,7.91-5.76l-14.76,14.81c-3.62,3.63-6.74,7.43-9.99,11.35-3.32,4-5.86,8.03-7.58,13.07-.25.73-1.53,2.02-2.02,3.06-3.57,7.45-2.33,18.15-1.09,28.18Z" fill="#fff"/>
        <path d="M173.64,383.24c-4.8,7.06-6.8,14.66-8.72,22.49.03-20.47,9.27-39.62,24.03-53.25,4.02-4.5,8.05-8.52,13.74-10.79-8.83,8.3-17.44,16.38-22.54,27.44l-6.51,14.13Z" fill="#fff"/>
        <path d="M108.44,445.27c-8.07-9.34-9.93-22.66-7.54-34.98,3.05-13.9,11.06-25.48,22.68-33.56,3.62-3.23,7.13-6.22,11.75-8.09-7.03,5.94-13.12,11.78-18.92,18.83-2.77,3.98-5.09,8.08-7.28,12.44-10.05,13.61-10.08,30.51-.69,45.36Z" fill="#fff"/>
        <path d="M380.39,374.11c-2.16-7.93-3.15-15.15-7.53-21.78l.83,6.7c-3.14-6.23-7.01-11.85-11.96-16.99-12.08-12.54-11.98-18.1-30.79-23.81,7.09-.29,13.27,3.17,19.12,7.03,9.53,6.28,16.51,15.68,22.19,25.47,5.45,2.32,9.05,18.12,8.13,23.38Z" fill="#fff"/>
        <path d="M343.3,384.23c-6.24-4.2-9.85-13.66-12.57-21.09l-.95-3.29c1.03,2.12,1.98,3.68,4.07,6.2l-.88-4.99c-1.91-10.87-5.6-20.65-11.05-30.33,7.11,6.68,11.85,15.42,14.3,25.02,1.06,4.14,1.39,8.51,2.23,12.84l1.35,7.02c.59,3.04,1.49,5.24,3.51,8.63Z" fill="#fff"/>
        <path d="M200.25,391.5c.68-7.14,3.22-13.39,5.34-20.02l2.37-7.4-4.25,5.32c2.82-7.67,9.8-20.87,15.67-26-3.19,6.9-6.65,10.22-9.45,18.51,4.47-4.74,7.38-10.06,12.86-14.34l-11.41,20.93c-4.15,7.61-7.56,15.04-11.13,23Z" fill="#fff"/>
        <path d="M240.1,371.67c-1.44,3.64-2.57,7.28-4.21,10.75-1.3,2.77-2.07,5.45-3.01,8.63-.95-3.69-.34-7.4.06-11.29l1.33-12.94c.34-3.27,1.33-6.71,2.01-10.01,2.02-9.81,7.49-18.35,15.98-23.64-10.15,12.79-14.35,22.06-15.76,39.41l5.93-6.82-2.32,5.89Z" fill="#fff"/>
        <path d="M502.7,399.73c-.12,4.1.39,7.71-1.72,10.94,1.97-13.23-1.64-23.78-8.28-33.86-4.7-7.14-9.03-13.37-16.22-18.33l-14.73-10.17c5.05.93,8.54,4.25,12.73,6.7,9.62,5.63,15.64,10.28,21.33,20.23,4.25,7.43,7.16,15.55,6.89,24.48Z" fill="#fff"/>
        <path d="M252.89,393.42c3.37-8.54,6.19-15.63,6.85-24.88.74-10.4,2.73-26.41,10.67-33.96-2.13,6.2-4.85,16.44-5.44,22.13-1.3,12.45-3.18,27.66-12.08,36.71Z" fill="#fff"/>
        <path d="M254,378.1l-1.05-14.33c-.58-7.94-.47-15.88,3.88-22.88,3.26-5.53,6.86-10.89,12.45-14.13-5.86,6.49-9.91,14.02-11.02,22.9l-1.44,11.47c-.44,5.91-1.28,11.39-2.81,16.96Z" fill="#fff"/>
        <path d="M139.53,411.37c-1.32,9.29.42,17.19,3.22,26.41-9.92-15.62-9.81-42.33,3.91-57.83-3.09,7.42-4.66,14.09-5.74,21.68l-1.38,9.73Z" fill="#fff"/>
        <path d="M214.11,342.97l-9.65,12.35c.74-2.73,1.08-4.87.94-7.02,5.14-8.56,9-13.94,17.89-19.24,4.57-2.72,8.91-5.56,14.34-6.41l-9.8,6.09,1.08.91c.31.26-11.93,9.65-14.79,13.31Z" fill="#fff"/>
        <path d="M394.99,344.92c-5.4-6.11-10.54-11.14-17.07-15.53-1.78-1.2-3.2-2.5-4.28-4.39-6.58-4.76-13.93-7.24-21.42-10.27,9.13,1.29,18.02,4.13,25.66,9.05,4.83,3.11,16.92,15.92,17.11,21.14Z" fill="#fff"/>
        <path d="M191.23,391.37c-2.95,7.41-1.67,17.74,1.73,24.73-11.25-13.89-4.09-35.49,3.71-46.3-1.47,5.88-2.31,10.17-3.07,15.08-2.27,14.61,1.87,10.03.26,20.51l-2.63-14.02Z" fill="#fff"/>
        <path d="M462.64,417.27c4.07-22.18-.36-35.64-10.72-55.61,14.05,11.88,18.56,38.6,10.72,55.61Z" fill="#fff"/>
        <path d="M345.67,364.14l-3-5.11c-2.31-3.8-4.14-7.79-5.35-12.14-2.25-9.14-7.24-16.36-13.99-22.93,12.16,6.31,18.27,18.55,20.72,31.56l1.62,8.62Z" fill="#fff"/>
        <path d="M442.89,365.13c4.09,7.66,7.68,14.86,9.5,22.96,1.69,7.5,1.46,22.93-5.21,28.68,5.91-11.96,6.44-25.81-.19-37.49-2.91-5.12-4.65-10.18-4.97-16.03l-3.18-6.97c3.83,3.36,12.56,13.65,15.29,17.56,5.77,8.27,9.03,18.6,6.02,28.97-.6-11.49-7.44-32.01-17.26-37.7Z" fill="#fff"/>
        <path d="M157.85,396.09l1.3-7.06,1.72-4.03c4.1-9.59,6.59-20.31,13.85-28.11,3.54-2.84,6.8-5.58,11.13-7.45-9.49,8.1-16.36,17.19-20.29,28.89-2.07,6.16-4.19,11.81-7.71,17.77Z" fill="#fff"/>
        <path d="M254.23,408.73c7.33-6.73,11.37-14.1,13.86-23.33,2.46-9.13,3.84-17.77,4.77-27.65,1.16,7.3.89,14.4-.04,21.78-2.75,11.55-7.72,23.24-18.59,29.2Z" fill="#fff"/>
        <path d="M420.92,342.29c7.76,6.08,18.78,20.64,17.81,31.61-3.07-7.13-5.67-13.97-10.41-20-6.83-8.67-14.63-15.09-24.03-20.94,6.29,1.78,11.49,5.3,16.62,9.33Z" fill="#fff"/>
        <path d="M249.09,377c.56,6.62-4.96,17.94-9.23,23.18,3.04-10.68,5.82-10.49,4.61-22.31-.36-3.52.05-7.23-.65-10.57-1.13-5.39.41-10.23,1.79-15.02l1.23,9.82c1.39,11.07-2.67,10.77.36,17.7l1.9-2.8Z" fill="#fff"/>
        <path d="M424.54,381.5c1.21,7.8,5.24,19.19-.5,28.04l1.17-8.06c.46-3.16-.65-7.47-.66-11.09-.03-6.87-2.54-13.47-6.72-18.95l-8.95-11.73c7.22,1.98,17.79,18.03,18.6,24.89-.99-.75-1.79-1.64-2.95-3.11Z" fill="#fff"/>
        <path d="M348.51,402.95c-16.28-6.18-25.72-29-25.07-45.26,5.24,18.5,9.03,33.45,25.07,45.26Z" fill="#fff"/>
        <path d="M292.65,370.77c-.43-4.09-.37-8.48-1.08-12.78-1.71-10.25-4.04-23.31,2.25-32.82-4.22,19.44,2.88,27.53-1.16,45.6Z" fill="#fff"/>
        <path d="M365.81,363.96l-3.1-5.74c-2.46-3.2-4.43-6.42-6.36-9.93-4.71-8.54-9.42-14.46-16.58-21.32,9.55,3.82,16.11,14.83,21.07,23.19,2.56,4.33,4.78,8.58,4.97,13.79Z" fill="#fff"/>
        <path d="M409.69,400.98c.88-4.01,1.71-7.66,1.63-11.7-.08-3.79-1.85-6.31-3.22-9.61-2.96-7.14-5.49-14.16-8.24-22.15,7.93,9.51,17.95,30.25,9.84,43.46Z" fill="#fff"/>
        <path d="M303.52,367.3c-3.12-15.42.2-24.57-4.82-41.98,5.44,6.52,6.42,14.86,6.24,23.29l-1.42,18.69Z" fill="#fff"/>
        <path d="M145.17,405.54c-1.53,6.01-.61,11.77-.37,17.77-5.48-13.16-2.78-27.24,5.32-38.3.75,1.57-.44,2.85-.8,4.28l-4.14,16.26Z" fill="#fff"/>
        <path d="M150.81,410.63c-.76-3.87-.67-7.25-.2-10.97l-1.49-1.98c.15-7.27,4.98-19.65,11.09-24.67l-4.39,12c-6.86,18.76-1.55,6.8-5.02,25.61Z" fill="#fff"/>
        <path d="M207.15,330.59l-20.42,10.39c4.59-5.63,26.41-18.83,34.25-17.19l-13.83,6.8Z" fill="#fff"/>
        <path d="M355.96,354.68c9.82,9.14,10.04,14.77,10.57,27.67-3.32-9.85-7.9-16.9-10.57-27.67Z" fill="#fff"/>
        <path d="M175.46,404.37c-3.14-6.89,2.75-25.75,10.42-28.45l-4.1,8.54c-3.01,6.26-5.11,12.4-6.32,19.91Z" fill="#fff"/>
        <path d="M356.37,379.42c-6.88-10.84-5.73-20.42-9.24-32.91,3.29,4.44,5.04,9.55,6.05,15.14l3.2,17.77Z" fill="#fff"/>
        <path d="M229.01,414.25c-3.59-6.41-5.43-13.88-5.01-21.67.24-4.51,2.5-8.57,3.82-12.71,1.07-3.34,1.85-6.28,3.16-9.38.26,3.57-.94,6.42-2.01,9.6-2.74,8.13-3.81,16.57-2.37,25.08.9,2.93,1.7,5.5,2.41,9.07Z" fill="#fff"/>
        <path d="M373.51,314.64c6.71-2.04,25.89,7.11,31.34,11.77l-31.34-11.77Z" fill="#fff"/>
        <path d="M374.27,403.85c-.05-5.41,1.5-10.63.54-16.07-1.16-6.62-3.5-12.48-5.62-19.52,8.05,8.68,9.5,23.29,5.08,35.58Z" fill="#fff"/>
        <path d="M183.62,375.63c2.94-8.33,7.72-15.42,13.79-21.76-2.89,8.35-7.46,15.5-13.79,21.76Z" fill="#fff"/>
        <path d="M215.15,396.01c-.94,4.63.49,9.26.73,13.93-4.4-10.67-3.11-22.65,2.94-32.08l-3.68,18.15Z" fill="#fff"/>
        <path d="M412.86,359.18c-2.82-1.31-4.11-3.55-5.98-5.41-3.83-3.8-7.32-7.6-9.31-13.04,6.58,5.06,11.84,11.13,15.29,18.45Z" fill="#fff"/>
        <path d="M466.13,372.1c6.34,4.66,10.36,20.82,9.28,28.24-2.22-9.83-4.82-19.2-9.28-28.24Z" fill="#fff"/>
        <path d="M121.08,474.01c-7.73-1.29-13.59-8.91-16.73-16.32l16.73,16.32Z" fill="#fff"/>
        <path d="M132.54,392.75c-2.24,9.55-3.84,15.93-4.56,26.49-2.75-8.72-.72-18.48,4.56-26.49Z" fill="#fff"/>
        <path d="M383.43,365.73c9.43,8.51,13.68,24.64,7.91,36.44,3.44-12.99.31-25.24-7.91-36.44Z" fill="#fff"/>
        <path d="M502.87,431.72c.53,2.92-10.16,22.33-14.68,19.18,5.73-5.8,10.15-11.76,14.68-19.18Z" fill="#fff"/>
        <path d="M486.36,381.46c4.27,1.07,6.09,21.2,4.21,24.82-.62-8.4-2.01-15.82-4.21-24.82Z" fill="#fff"/>
        <path d="M151.7,415.55c-1.22,7.87,2.02,13.6,6.42,19.95-6.59-5.09-9.75-14.2-7.68-22.66l1.26,2.7Z" fill="#fff"/>
        <path d="M158.77,418.4l1.26,7.11c-4.15-6.8-4.37-15.24-.66-22.28-.3,5.27-1.49,10.19-.6,15.18Z" fill="#fff"/>
        <path d="M113.5,433.27c-2.67-2.13-4.33-23.39-.41-26.05-1.31,8.89-.82,16.93.41,26.05Z" fill="#fff"/>
        <path d="M363.38,394.83c-2.12-1.47-13.88-16.64-13.1-21.17l13.1,21.17Z" fill="#fff"/>
        <path d="M385.51,399.78l-.1-8.66c-.3-5.57-1.4-10.51-3.05-16,2.65,3.37,3.58,7.52,4.1,11.91.26,4.4.38,8.56-.95,12.74Z" fill="#fff"/>
        <path d="M213.33,416.59c-4-2.72-5.16-7.51-6.34-12.15-1.33-5.09-1.43-10.16.33-14.94l.07,8.8c-.33,6.73,2.08,12.16,5.93,18.29Z" fill="#fff"/>
        <path d="M297.16,369.72c1.73,2.57-1.77,23.63-5.63,24.73,3.37-8.12,4.53-15.91,5.63-24.73Z" fill="#fff"/>
        <path d="M409.35,430.31l15.78-6.42,6.82-6.94c-1.59,3.99-4.86,6.58-8.33,8.65-4.33,2.36-8.6,5.01-14.26,4.71Z" fill="#fff"/>
        <path d="M310.49,396c-5.54-5.79-8.23-13.76-9.27-21.81,2.64,7.49,5.51,14.43,9.27,21.81Z" fill="#fff"/>
        <path d="M442.78,386.05c3.46,3.65,3.67,17.53,1.32,20.07.35-7.35-.12-13.28-1.32-20.07Z" fill="#fff"/>
        <path d="M414.86,320.61c-4.97,1.32-9.05.41-12.49-3.24,4.75.25,8.72,1.48,12.49,3.24Z" fill="#fff"/>
        <path d="M177.59,339.27c-3,3.49-8.93,5.01-13.96,3.86,4.58-1.58,8.86-2.75,13.96-3.86Z" fill="#fff"/>
        <path d="M132.6,430.24c-3.42-4.71-3.09-9.92-2.73-15.08l.33-4.73,1.26,14.08,1.14,5.73Z" fill="#fff"/>
        <path d="M393.43,415.81c4.17-5.28,7.21-10.7,8.93-17.74-.25,6.47-3.01,13.56-8.93,17.74Z" fill="#fff"/>
        <path d="M405.08,389.04l-3.9-12.83c2.68,3.39,5.5,7.8,3.9,12.83Z" fill="#fff"/>
        <path d="M217.67,434.36c-4.78,2.5-9.13.5-13.5-1.04l13.5,1.04Z" fill="#fff"/>
        <path d="M494.25,404.5l-1.65-12.85c2.78,3.91,2.82,8.48,1.65,12.85Z" fill="#fff"/>
        <path d="M103.52,385.41c2.94-4.27,6.52-7.56,11.14-10.07-3.51,3.54-7.22,7.05-11.14,10.07Z" fill="#fff"/>
        <path d="M142.18,471.93c-4.79-.59-8.89-1.79-12.21-5.13,4.19,1.49,8.3,3.26,12.21,5.13Z" fill="#fff"/>
        <path d="M347.31,424.97c-4.08-.43-7.8-2.36-10.19-6.07l10.19,6.07Z" fill="#fff"/>
        <path d="M249.69,429.06c3.03-3.24,6.3-6.27,9.95-9.44-2.57,3.84-5.44,7.21-9.95,9.44Z" fill="#fff"/>
        <path d="M289.04,397.18c1.62-.36-5.61,13.92-6.73,12.51l6.73-12.51Z" fill="#fff"/>
        <path d="M376.03,424.39c-3.67.5-7.8.2-9.78-3.45l9.78,3.45Z" fill="#fff"/>
        <path d="M488.92,357.92l-11.05-6.59c4.05.69,8.17,2.83,11.05,6.59Z" fill="#fff"/>
        <path d="M177.72,418.88c-1.93-3.78-2.23-7.93-.71-12.07l.71,12.07Z" fill="#fff"/>
        <path d="M229.88,433.53c2.65-1.96,5.57-3.74,9.09-5.32-2.14,2.72-4.94,4.78-9.09,5.32Z" fill="#fff"/>
        <path d="M397.87,422.09c-3.44,1.47-7.07,2.72-10.48,2.28,2.4.12,13.85-5.96,10.48-2.28Z" fill="#fff"/>
        <path d="M355.73,423.04c-3.67-.87-6.69-2.97-9.03-6.16,3.25,1.79,5.97,3.68,9.03,6.16Z" fill="#fff"/>
        <path d="M322.35,407.87c-3.8-.97-5.85-4.41-6.81-7.82l6.81,7.82Z" fill="#fff"/>
      </g>
    </g>
  </g>
  <g id="L-Eye">
    <path d="M124.88,102.82c-11.62-3.72-17.99-14-18.13-25.51-5.82.95-10.83,2.07-15.81,4.09-2.39.97-6.28,4.49-7,3.75l-.71-.73-.91,1.6c-.24.43-1.44-.18-2.08-.41l-.46.93c-.15.31.97.72,1.18,1.01l5.69,7.76c3.15,4.3,7.39,8.12,11.95,11.23,14.11,9.59,30.38,14.28,47.61,14.14.76,0,1.97.54,2.68,1.04-14.61,4.16-34.66-2.06-47.18-9.96-9.55-6.02-16.36-14.16-22.24-23.86-2.2,12.44,3.1,19.08,10.55,28.16-10.8-5.87-20.7-18.03-18.98-29.8-4.72,5.31-5.44,12.13-2.06,17.89-3.17-2.75-4.29-6.39-5.11-10.13-2.13,1.38-1.77,3.62-.64,5.56l1.86,3.19c-2.62-1.5-4.32-2.69-6.64-3.45l-11.22-3.64c5.38-1.57,10.03-.06,13.7-3.72l-5.37,1.14c-7.58,1.61-15.47,1.48-22.36-2.88,7.37,1.55,14.89,1.77,21.95-1.4-10.94-.32-21.23-2.83-29.09-10.67,6,2.24,11.73,4.62,18.37,4.49,5.6-.11,11.02-.37,16.48-2.33-7.36-.36-14.69-.04-21.19-4.13,2.75-.1,5.39.02,7.98-.33,29.56-3.97,49.02-7.93,79.85-5.7l17.31,1.25-11.83-7.09.14,3.29c-5.49-3.17-9.88-6.51-14.58-10.3-8.76-7.05-26.95-20.4-38.38-21.76,9.92,4.61,19.51,9.41,26.45,18.2l-8.84-3.63c-16.1-6.62-29.41-16.18-49.49-12.34,11.59.58,23.07,3.38,32.61,9.82-10.37-2.08-19.35-4.27-29.27-4.28-10.38-.01-20.43,1.17-29.29,5.45,9.06-1.28,16.72-2.81,24.81-.81l-16.93,3.47c-10.57,2.17-20.07,5.31-30.22,10.24,3.54-8.04,14.42-14.78,21.02-19.88-5.45,1.95-9.59,4.93-14.84,8.34.91-6.57,12.72-14.81,19.17-17.38l20.02-7.98c-9.19.3-16.85,3.47-25.4,6.91,7.45-8.94,17.84-13.58,29.31-16.17-7.57-1.14-13.64,2.82-21.33,3.21,8.5-6.24,18.3-9.06,28.64-10.6,6.35-.94,12.58.39,19.26.63-7.33-3.07-15.36-4.29-23.44-2.72l-10.6,2.07C64.63-4.27,82.66-.03,103.83,13.94c-3.61-5.39-8.36-8.99-13.14-13.94,8.45,1.59,15.68,5.96,22.08,11.53,7.82,6.8,15.34,13.15,24.17,18.94-8.73-10.79-17.36-17.08-28.96-25.07,16.19,4.7,36.11,22.94,48.32,34.21,4.65,4.29,9.6,7.81,15.09,11.16l-13.19-14.26-14.34-15.55c6.47,3.7,12.41,7.84,18.48,12.15l7.26,5.15,21.59,16.32c7.95,6.01,16.9,10.23,26.81,12.64-12.29-6.14-23.6-14.29-32.96-24.54l25.09,13.16c7.22,3.79,14.48,6.83,22.39,9.15,2.59.76,6.12.3,8.91.05-8.06-.89-12.93-2.27-20.25-7.3l16.49,3.59c2.74.6,5.87.24,9.11.24l-4.94,3.31c8.29-.73,13.89-6.1,18.96-12.19-1.22,6.18-4.41,11.17-8.12,16.1-2.26,3.01-5.52,5.24-8.5,7.81,19.93-5.11,29.24-32.64,30.74-50.13,3.09,11.36,1.23,23.82-2.39,34.31-2.32,6.71-6.64,11.71-12.3,15.91,4.81.14,7.96-7.84,11.43-10.03-4.02,13.41-15.93,22.05-30.2,23.58,1.68,1.05,3.43,2.21,5.11,3.59,7.42,6.08,16.27,9.22,26.26,7.86-7.79,3.96-16.48,2.81-25.08.46,5.36,6.78,7.12,14.19,7.12,22.58l-9.32-13.87c-.02,7.68-2.84,14.39-9.83,18.08,4.75-7.52,6.4-15.99,2.75-23.82l-1.33,6.71c-.93-4.92-1.58-8.48-5.03-11.49-2.52-2.19-4.34-5.27-8.41-6.3,3.27,3.92,3.8,9.38.77,13.76-2.41,3.48-6.05,6.34-10.51,7.46,1.79-2.12,3.81-4.06,5.19-6.14,2.9-4.34.79-9.02-1.72-12.72-2.1-3.08-4.3-3.71-8.01-3.8l-15.09-.4,10.93,2.32,6.73,4.33c1.87,1.21,3.42,2.37,3.57,4.17.55,6.66-10.51,8.6-16.01,9.09l-1.39.13c-.24.02-.58-.64-.42-.82,2.1-2.39,11.31-1.25,14.28-9.02-.11.29-6.9-5.41-13.02-.27-2.81,2.36-6.51,2.77-9.82,3.81-8.9,2.8-16.82,6.99-26.23,8.72l23.01-9.47c3.94-1.62,7.58-7.25,4.76-10.87-2.44-2.37-6.66-4.93-9.9-6.01l-16.67-5.57c-2.84,11.42-11.89,19.86-23.87,21.23-5.18.59-10.13.57-15.41-1.12ZM120.65,35.52c-8.5-8.15-18.55-14.25-30.01-16.51,10.83,4.43,20.29,10.29,30.01,16.51ZM100.59,34.73c-9.2-7.43-21.41-11.13-33.35-10.42,11.69,1.08,22.27,5.35,33.35,10.42ZM161.29,56.53c-5.15-4.96-10.43-9.14-16.67-13.21,4.83,4.96,10.05,9.77,16.67,13.21ZM143.56,65.22l-7.92-5.58-6.94-4.5c3.94,4.43,8.79,8.28,14.85,10.08ZM247.14,65.45c-4.49,1.75-8.03,3.5-11.44,5.41,4.84-.69,8.74-2.49,11.44-5.41ZM219.16,78.85l-15.69-2.66c7.17,3.56,15.17,4.35,22.99,3.36l-7.31-.7ZM125.42,78.13c-.72.38-.93,2.31-.53,3,.33.57,2.24,1.03,2.51.42s.52-1.87.59-2.61c.07-.66-1.94-1.15-2.57-.81ZM147.82,85.49c-3.52,2.23-6.08,3.75-9.31,5.16,4.22.55,9.5-1.44,9.31-5.16ZM131.27,100.87c1.4-1.46,1.38-1.11,1.32.13,4.32.91,8.51.7,12.35-1.1l-2.76-.74c5.61-1.74,10.97-4.1,13.69-9.56l-2.66,1.29c-.87-8.83-4.3,1.23-13.28,3.2-3.9.86-8.41,1.81-12.09.37l-4.2-1.65,4.49,4.74-6.03-.87c2.91,1.81,5.65,2.99,9.17,4.19ZM199.4,97.36l-5.2-2.44-1.31,7.02c2.39-1.48,3.85-2.5,6.51-4.58Z"/>
    <path d="M162.44,147.6c18.67-3.59,30.54-8.03,45.04-21.43-9.24,16.75-26.48,22.06-45.04,21.43Z"/>
    <path d="M195.79,110.22c-8.63,7.95-34.41,13.39-45.5,11.23,15.96-3.45,30.41-6.19,45.5-11.23Z"/>
    <path d="M131.27,100.87c-3.52-1.2-6.26-2.38-9.17-4.19l6.03.87-4.49-4.74,4.2,1.65c3.68,1.44,8.19.48,12.09-.37,8.98-1.97,12.41-12.03,13.28-3.2l2.66-1.29c-2.71,5.46-8.07,7.83-13.69,9.56l2.76.74c-3.84,1.8-8.03,2.01-12.35,1.1.05-1.24.07-1.59-1.32-.13Z" fill="#fff"/>
    <path d="M100.59,34.73c-11.09-5.07-21.66-9.35-33.35-10.42,11.94-.71,24.15,2.99,33.35,10.42Z" fill="#fff"/>
    <path d="M120.65,35.52c-9.73-6.22-19.18-12.08-30.01-16.51,11.46,2.26,21.51,8.36,30.01,16.51Z" fill="#fff"/>
    <path d="M161.29,56.53c-6.62-3.43-11.84-8.25-16.67-13.21,6.24,4.07,11.51,8.25,16.67,13.21Z" fill="#fff"/>
    <path d="M219.16,78.85l7.31.7c-7.82.99-15.82.19-22.99-3.36l15.69,2.66Z" fill="#fff"/>
    <path d="M199.4,97.36c-2.66,2.08-4.13,3.1-6.51,4.58l1.31-7.02,5.2,2.44Z" fill="#fff"/>
    <path d="M143.56,65.22c-6.06-1.8-10.91-5.65-14.85-10.08l6.94,4.5,7.92,5.58Z" fill="#fff"/>
    <path d="M147.82,85.49c.2,3.72-5.09,5.72-9.31,5.16,3.23-1.41,5.78-2.93,9.31-5.16Z" fill="#fff"/>
    <path d="M247.14,65.45c-2.7,2.92-6.6,4.72-11.44,5.41,3.41-1.91,6.95-3.66,11.44-5.41Z" fill="#fff"/>
    <path d="M125.42,78.13c.63-.34,2.64.15,2.57.81-.08.74-.33,2-.59,2.61s-2.18.15-2.51-.42c-.4-.69-.18-2.61.53-3Z" fill="#fff"/>
  </g>
  <g id="R-Eye">
    <path d="M507.6,76.37c7.58.24,15.49.19,21.38-3.9-4.21.17-7.43.32-11.12-.19-12.98-1.8-25.44-3.48-38.55-4.56-17.06-1.4-33.45-.06-51.01,1.2l1.6-.92c-8.2.79-16.51,1.23-24.41,3.67-8.94,2.76-17.42,7.76-26.05,11.4-3.23,1.36-6.91,2.57-10.5,4.02,2.03-.06,4.09-.12,6.11-.34-3.99,1.2-7.68,2.78-11.07,5.21l-4.35,3.12c7.75.68,9.82-3.38,13.03-1.3,3.99,2.59,8.33,4.18,12.96,5.84,6.95,2.5,13.64,4.79,20.69,6.92,2.08.63,3.86,1.29,6.11,1.46-3.62-1.92-7.4-2.84-11.46-4.1-4.73-1.48-14.46-5.11-17.84-7.71-2.96,1.31-8.09-3.74-7.01-6.01,1.02-2.14,3.99-4.03,6.3-4.5-.72.87-3.23,2.51-2.94,3.54.56,2.01,1.53,4.17,2.33,5.82l-.4-6.09c9.55-5.69,15.5-7.03,26.25-9.99,3.17,12.65,15.65,19.17,29.63,18.53,15.03-.68,26.54-10.04,25.9-23.74,7.84.31,15.45,2.79,21.64,6.28.32.18,1.57.24,1.65-.03l.43-1.46c1.43,1.3,2.8,2.85,3.65,4.09-2.2,2.33-3.71,4.11-5.46,6.4-5.52,7.22-13.4,11.84-22.2,15.59-10.95,4.67-22.21,7.17-34.57,7.23-2.4.01-5.11.31-7.58-.02-18.99-2.58-23.42-3.28-41.61-8.15-2.89-.77-5.37-2.15-8.59-1.93,21.35,8.87,28.52,10.8,52.77,11.71,7.68.29,14.07,1.15,21.69-.44,19.63-4.09,36.25-13.07,45.73-29.49,3.74,8.76-3.25,18.06-10.17,24.11,10.92-4.64,19.38-14.2,19.06-25.69,1.9,2.44,2.93,4.75,4.07,7.66.84,2.14-1.19,5.2-2.64,7.41,3.38-.91,5.26-3.48,6.95-6.46l1.75.92c-1.56,1.18-2.61,2.06-3.14,3.43,5.47-2.13,10.03-3.46,15.83-4.9l-8.33-1.18c-2.29-.33-4.54-1.03-5.79-2.7,9.39,2.98,19.52,3.3,28.08-1.04-7.27,1.28-14.47,1.25-20.9-1.29,10.24-.13,19.84-3.14,27.32-9.27-11.77,4.06-23.77,5.59-35.23,1.86ZM442.38,74.61c.66-.36,2.68-.35,3.06.12.45.56.11,1.98-.41,2.68-.43.58-2.16.25-2.84-.27-.59-.46-.48-2.17.19-2.53ZM420.57,76.87c1.98,6.68,7.91,8.21,14.18,9.62-3.05.26-6.61.15-9.39-1.15-3.15-1.47-5.86-5.35-4.8-8.48ZM432.19,94.48c-4.39.6-8.74-1.34-11.81-3.69,3.02,1.01,5.24,1.85,7.97,2.45l-6.5-3.12c-3.43-1.65-5.91-5.19-6.58-8.17l4,3.91c4.22-3.13,7.38,3.98,21.21,3.42,3.47-.14,5.69-2.07,9.14-3.61l-3.33,5.09,3.63-.52c-9.37,6.2-8.44,2.97-17.74,4.23Z"/>
    <path d="M410.46,135.15c-7.74.68-21.74-.94-29.16-5.24-5.97-3.46-11.2-7.77-14.58-13.32l12.21,8.87c9.61,5.06,19.7,8.09,31.54,9.69Z"/>
    <path d="M370.62,103.5c-1.95,1.66-12.48-3.99-11.43-5.46l.92-1.29,10.51,6.75Z"/>
    <path d="M446.29,90.76l3.63-.52c-9.37,6.2-8.44,2.97-17.74,4.23-4.39.6-8.74-1.34-11.81-3.69,3.02,1.01,5.24,1.85,7.97,2.45l-6.5-3.12c-3.43-1.65-5.91-5.19-6.58-8.17l4,3.91c4.22-3.13,7.38,3.98,21.21,3.42,3.47-.14,5.69-2.07,9.14-3.61l-3.33,5.09Z" fill="#fff"/>
    <path d="M434.75,86.49c-3.05.26-6.61.15-9.39-1.15-3.15-1.47-5.86-5.35-4.8-8.47,1.98,6.68,7.91,8.21,14.18,9.62Z" fill="#fff"/>
    <path d="M442.38,74.61c.66-.36,2.68-.35,3.06.12.45.56.11,1.98-.41,2.68-.43.58-2.16.25-2.84-.27-.59-.46-.48-2.17.19-2.53Z" fill="#fff"/>
  </g>
  <g id="R-Eyebrow">
    <path d="M549.71,43.6c4.91,1.29,8.64,3.97,13.01,6.67l.72-.65c-6.06-9.59-17.46-14.23-28.76-18.12l-10.27-3.54c9.13.13,16.55,3.44,24.83,6.05-7.19-7.42-17.08-11.58-27.65-13.7l-5.65-1.13c3.36-.24,6.49.16,9.75.76l15.13,2.8c-5.77-5.44-20.16-8.27-27.67-9.34-5.98-.86-12,.65-18.18,1.05,6.63-2.98,14.33-4.02,21.93-2.84l10.39,1.6c-21.83-11.09-41.79-5.81-61.41,6.02,1.19-2.26,3.3-4.27,5.45-5.9l9.8-7.46c-9.67,2.16-17.48,6.14-24.6,11.75-7.95,6.26-15.7,12.34-24.7,17.42,8.82-9.54,19.46-16.32,30.43-23.7-16.64,5.11-32.43,18.39-44.82,28.63-5.64,4.67-11.41,8.64-18.29,11.88,3.29-2.76,6.26-5.17,9.22-8.05l17.97-17.5c-5.13,2.45-9.96,4.69-14.46,7.81l-22.59,15.69c-9.95,6.91-20.83,12.52-33.74,15.3,6.71-3.24,13.83-6.07,19.86-10.76,4.56-3.55,8.74-6.86,13.05-10.7l-29.73,13.69c-3.88,1.78-20.27,7.44-25.11,6.39,6.4-2.01,12.96-2.66,18.73-6.82l-18.85,3.51c-2.01.37-5.09.89-7.13.38-5.05-1.26-8.65-4.73-12.19-8.37,3.89,8.93,7.01,15.02,17.14,20.9-8.49-2.34-14.58-7.81-19.47-14.23-6.66-8.75-9.28-18.93-10.74-29.65-3.45,9.78-1.14,27.97,5.99,36.32l-2.87-1.17c4.19,12.25,13.87,18.36,28.95,20.56l-9.01,5.32c-6.14,3.63-12.9,4.95-20.25,4.78,7.08,3.73,17.32,1.59,24.19-.55-4.99,6.18-8.41,12.92-7.01,20.43,2.75-4.11,4.17-8.38,8.37-11.8.12,6.49,3.18,12.12,9.48,15.32-5.06-6.96-6.72-16.39-.23-22.54-.13,3.24-1.65,5.84-.23,9.15,2.27-4.45,6.12-17.48,13.84-17.44-3.54,3.18-4.62,7.34-2.37,11.38,2.08,3.75,5.98,6.65,10.72,7.67-2.76-2.68-5.7-4.45-5.96-8.17-.26-3.7,1.93-9.89,6.71-10.94,4.15-.92,8.99-.52,13.61-1.04-3.99,1.2-7.68,2.78-11.07,5.21l-4.35,3.12c6.01.52,8.6-1.78,10.96-1.88.73-.48,1.54-.85,2.39-1.06.74-.19,1.49-.38,2.23-.57.24-.17.5-.3.76-.45-.04-.34,0-.66.13-.94,1.02-2.14,3.99-4.03,6.3-4.5-.72.87-3.23,2.51-2.94,3.54.08.28.18.57.27.86.09,0,.18-.02.28-.02h1.45l-.07-1.1c9.55-5.69,15.5-7.03,26.25-9.99.01.05.03.1.05.16.37-.19.75-.37,1.16-.52,6.28-2.31,17.73-3.33,21.06-9.79-.54.04-1.08.08-1.62.12l2.42-1.4c1.25-1.77,3.27-2.81,5.44-3.14l2.2-1.27-.27,1.16c.67.03,1.32.12,1.96.29,3.29-1.6,6.19-3.19,9.03-5.29,9.73-7.21,31.96-21.65,44.78-22.52-10.04,3.76-19.92,8.1-27.05,16.18l17.44-7.21c10.51-4.34,24.46-8.9,35.63-6.52-10.78,1.45-21.37,3.06-30.34,8.92,16.65-3.98,41.24-6.4,56.44.79-7.88-1.12-15.02-2.26-22.35-.55l21.19,4.23c8.58,1.71,16.24,4.24,24.2,7.91.34.46.39.14.42-.54-6.2-8.08-11.16-10.14-19.72-16.37ZM326.38,61.83l5.22,1.61-1.64.8,8.44,3.95c-4.94-.2-8.81-3.04-12.03-6.36ZM351.03,75.96l5.5-1.01,14.86-2.07c-6.45,2.45-13.31,3.59-20.37,3.08ZM429.69,43.36c-5.77,4.78-11.65,9.12-19.45,12.67,5.54-4.69,12.26-8.85,19.45-12.67ZM441.29,56.06c-5.81,4.07-11.9,7.73-18.78,9.36l18.29-10.02c.82-.5.82-.3.49.65ZM479.86,22.94c-10.79,4.08-19.72,9.06-29.32,14.48,8.27-6.98,18.41-12.58,29.32-14.48ZM471.54,36.57c1.43-3.78,24.02-10.95,29.95-8.92-10.39,1.04-19.52,4.16-29.95,8.92Z"/>
  </g>
</svg>